HIERARCHY
ROOT Hips
{
	OFFSET 0.000000 0.000000 0.000000
	CHANNELS 6 Xposition Yposition Zposition Xrotation Yrotation Zrotation
	JOINT LeftUpLeg_virtual
	{
		OFFSET 0.000000 0.000000 0.000000
		CHANNELS 3 Xrotation Yrotation Zrotation
		JOINT LeftUpLeg
		{
			OFFSET 10.205400 -3.823500 0.155100
			CHANNELS 3 Xrotation Yrotation Zrotation
			JOINT LeftLeg
			{
				OFFSET 0.708757 -12.982077 0.567790
				CHANNELS 3 Xrotation Yrotation Zrotation
				JOINT LeftFoot
				{
					OFFSET -0.708756 -10.717838 -2.184338
					CHANNELS 3 Xrotation Yrotation Zrotation
					JOINT LeftToeBase
					{
						OFFSET 0.108149 -7.191104 7.560241
						CHANNELS 3 Xrotation Yrotation Zrotation
						JOINT LeftToe_End
						{
							OFFSET 0.070230 0.081724 4.490308
							CHANNELS 3 Xrotation Yrotation Zrotation
							End Site
							{
								OFFSET 0 0 0
							}
						}
					}
				}
			}
		}
	}
	JOINT RightUpLeg_virtual
	{
		OFFSET 0.000000 0.000000 0.000000
		CHANNELS 3 Xrotation Yrotation Zrotation
		JOINT RightUpLeg
		{
			OFFSET -10.205400 -3.823500 0.005500
			CHANNELS 3 Xrotation Yrotation Zrotation
			JOINT RightLeg
			{
				OFFSET -0.708756 -12.982134 0.610632
				CHANNELS 3 Xrotation Yrotation Zrotation
				JOINT RightFoot
				{
					OFFSET 0.708754 -10.717769 -1.945823
					CHANNELS 3 Xrotation Yrotation Zrotation
					JOINT RightToeBase
					{
						OFFSET -0.108140 -7.191069 7.372968
						CHANNELS 3 Xrotation Yrotation Zrotation
						JOINT RightToe_End
						{
							OFFSET -0.070227 0.081735 4.479403
							CHANNELS 3 Xrotation Yrotation Zrotation
							End Site
							{
								OFFSET 0 0 0
							}
						}
					}
				}
			}
		}
	}
	JOINT Spine_virtual
	{
		OFFSET 0.000000 0.000000 0.000000
		CHANNELS 3 Xrotation Yrotation Zrotation
		JOINT Spine
		{
			OFFSET 0.000000 6.876099 0.125700
			CHANNELS 3 Xrotation Yrotation Zrotation
			JOINT Spine1
			{
				OFFSET 0.000000 5.730043 0.104720
				CHANNELS 3 Xrotation Yrotation Zrotation
				JOINT Spine1_split
				{
					OFFSET 0.000000 5.730043 0.104720
					CHANNELS 3 Xrotation Yrotation Zrotation
					JOINT Spine2
					{
						OFFSET 0.000000 5.730043 0.104720
						CHANNELS 3 Xrotation Yrotation Zrotation
						JOINT Neck_virtual
						{
							OFFSET 0.000000 0.000000 0.000000
							CHANNELS 3 Xrotation Yrotation Zrotation
							JOINT Neck
							{
								OFFSET 0.000000 10.314075 0.188496
								CHANNELS 3 Xrotation Yrotation Zrotation
								JOINT Head
								{
									OFFSET 0.000000 7.643700 -2.377400
									CHANNELS 3 Xrotation Yrotation Zrotation
									JOINT HeadTop_End
									{
										OFFSET 0.000000 43.788605 -13.619600
										CHANNELS 3 Xrotation Yrotation Zrotation
										End Site
										{
											OFFSET 0 0 0
										}
									}
								}
							}
						}
						JOINT LeftShoulder_virtual
						{
							OFFSET 0.000000 0.000000 0.000000
							CHANNELS 3 Xrotation Yrotation Zrotation
							JOINT LeftShoulder
							{
								OFFSET 2.196100 4.412489 0.087492
								CHANNELS 3 Xrotation Yrotation Zrotation
								JOINT LeftShoulder_split
								{
									OFFSET 2.196100 4.412489 0.087492
									CHANNELS 3 Xrotation Yrotation Zrotation
									JOINT LeftArm
									{
										OFFSET 8.771219 -2.981674 -0.026999
										CHANNELS 3 Xrotation Yrotation Zrotation
										JOINT LeftForeArm
										{
											OFFSET 8.512804 0.000000 -0.000000
											CHANNELS 3 Xrotation Yrotation Zrotation
											JOINT LeftHand
											{
												OFFSET 18.484802 0.000000 -0.000000
												CHANNELS 3 Xrotation Yrotation Zrotation
												End Site
												{
													OFFSET 0 0 0
												}
											}
										}
									}
								}
							}
						}
						JOINT RightShoulder_virtual
						{
							OFFSET 0.000000 0.000000 0.000000
							CHANNELS 3 Xrotation Yrotation Zrotation
							JOINT RightShoulder
							{
								OFFSET -2.196100 4.412496 0.070690
								CHANNELS 3 Xrotation Yrotation Zrotation
								JOINT RightShoulder_split
								{
									OFFSET -2.196100 4.412496 0.070690
									CHANNELS 3 Xrotation Yrotation Zrotation
									JOINT RightArm
									{
										OFFSET -8.771282 -2.981682 -0.094208
										CHANNELS 3 Xrotation Yrotation Zrotation
										JOINT RightForeArm
										{
											OFFSET -8.494598 0.000000 0.000000
											CHANNELS 3 Xrotation Yrotation Zrotation
											JOINT RightHand
											{
												OFFSET -18.483803 0.000000 0.000001
												CHANNELS 3 Xrotation Yrotation Zrotation
												End Site
												{
													OFFSET 0 0 0
												}
											}
										}
									}
								}
							}
						}
					}
				}
			}
		}
	}
}
MOTION
Frames: 7
Frame Time: 0.03333333
-2.658759 33.358742 -3.622494 0.000000 0.000000 0.000000 -10.993004 -1.573336 4.012787 -5.192489 7.075660 -2.222787 25.746943 1.032020 -2.714814 -15.773205 5.330424 3.057704 -1.656878 0.341348 0.001880 0.000000 0.000000 0.000000 -9.956206 -2.905797 3.711548 -7.777087 -11.707928 -17.434574 35.868841 3.717295 0.885829 -17.811108 -17.370484 3.301783 -1.251044 0.314798 -0.588455 0.000000 0.000000 0.000000 -9.889055 -1.529497 4.149314 6.703892 1.424939 -2.831538 14.398117 2.749143 -1.644087 0.456997 -1.895950 0.352125 0.000000 0.000000 0.000000 14.057895 2.504691 -2.179107 29.879257 -1.752861 -5.893188 1.288189 -1.486612 -5.275379 0.000000 0.000000 0.000000 14.948750 3.081067 -2.963354 -3.082629 -22.979893 -26.323488 -1.790853 -0.723914 -4.089083 -0.401744 -43.160218 -29.097566 9.755125 -24.579272 0.225056 0.000000 0.000000 0.000000 14.471641 3.075524 -2.515407 0.242343 23.201876 23.384913 0.340080 0.907816 1.892646 -9.269877 20.492938 39.278659 36.015352 42.882970 -16.207547 0.000000 0.000000 0.000000 
-2.441868 33.467525 -3.572338 0.000000 0.000000 0.000000 -11.677736 -2.363588 4.556429 -1.953815 7.852714 -3.170017 22.441953 0.837093 -2.892416 -14.721539 5.051247 2.296984 -0.580294 0.457853 -0.262981 0.000000 0.000000 0.000000 -10.789372 -2.700105 4.260266 -5.999748 -12.778134 -18.994218 34.365643 3.925547 0.891526 -17.807039 -16.243061 3.835229 -1.026685 0.158644 -0.472079 0.000000 0.000000 0.000000 -11.356214 -1.232301 4.570145 6.650012 1.345888 -3.579366 13.006893 2.828679 -2.026985 0.876051 -2.024448 0.345092 0.000000 0.000000 0.000000 12.561343 2.603524 -2.368008 28.304895 -0.977627 -5.912292 0.736239 -0.101272 -5.529358 0.000000 0.000000 0.000000 13.528648 3.163156 -3.074689 -1.832378 -21.905928 -22.919203 -2.205419 -0.634730 -3.644723 -0.618141 -40.335474 -31.788305 8.565161 -23.682843 0.068792 0.000000 0.000000 0.000000 13.154418 3.142971 -2.676177 0.811611 21.634438 22.062887 0.568260 0.823196 2.248692 -4.460808 22.821371 40.277448 33.886481 45.316014 -15.358970 0.000000 0.000000 0.000000 
-2.280437 33.511944 -3.455759 0.000000 0.000000 0.000000 -11.732884 -2.977332 4.832447 0.242237 8.370755 -3.861120 19.892957 0.735595 -2.930171 -13.818672 4.588905 1.708901 0.055054 0.504295 -0.378172 0.000000 0.000000 0.000000 -11.040614 -2.440368 4.604055 -4.858487 -13.385088 -20.133572 33.393775 4.171820 0.979312 -18.040714 -15.285449 4.534135 -1.373736 0.056252 -0.556036 0.000000 0.000000 0.000000 -11.951344 -0.785234 4.777439 6.446135 1.191198 -4.230066 11.609319 2.876047 -2.378032 1.074441 -2.132988 0.151505 0.000000 0.000000 0.000000 11.163516 2.653298 -2.565682 26.669918 -0.374393 -5.217853 -0.138643 0.919547 -5.427668 0.000000 0.000000 0.000000 12.122862 3.193226 -3.131045 -0.449276 -20.840080 -18.722119 -2.733622 -0.568578 -3.217321 -0.612787 -35.930101 -34.530117 8.961281 -24.338454 0.555298 0.000000 0.000000 0.000000 11.773591 3.138307 -2.831321 1.482890 19.895445 19.830903 0.678504 0.804126 2.462211 -0.493625 23.686575 41.813069 32.775947 47.055557 -15.444782 0.000000 0.000000 0.000000 
-2.187022 33.499649 -3.325476 0.000000 0.000000 0.000000 -11.454811 -3.367638 4.834136 1.291680 8.771114 -4.215345 18.372785 0.732900 -2.897365 -12.947655 4.026503 1.506048 0.178435 0.484622 -0.285148 0.000000 0.000000 0.000000 -10.867119 -2.350365 4.739156 -4.368591 -13.470339 -20.959305 32.864678 4.462408 1.142104 -18.043511 -14.570602 5.401101 -2.217447 -0.008333 -0.781502 0.000000 0.000000 0.000000 -11.906362 -0.511107 4.748892 6.047684 1.022332 -4.664017 10.261561 2.873308 -2.647088 1.460735 -2.267988 0.077732 0.000000 0.000000 0.000000 9.890512 2.634405 -2.738749 24.816162 0.062159 -4.087303 -1.409239 1.615059 -5.022325 0.000000 0.000000 0.000000 10.847002 3.127731 -3.168850 0.895456 -19.691608 -14.442841 -3.366112 -0.756714 -3.206587 0.178791 -30.248941 -37.180159 10.836549 -25.318253 1.448590 0.000000 0.000000 0.000000 10.420206 3.068298 -2.964686 2.134872 18.102001 17.088775 0.280662 1.028293 2.736056 1.878817 22.694943 43.988030 32.823420 47.641280 -16.372850 0.000000 0.000000 0.000000 
-2.134758 33.455696 -3.215580 0.000000 0.000000 0.000000 -11.119574 -3.665987 4.648503 1.516952 9.052195 -4.390873 17.717340 0.907372 -2.814810 -12.374277 3.649797 1.879758 0.183449 0.440634 -0.173844 0.000000 0.000000 0.000000 -10.495723 -2.601450 4.712836 -4.335706 -13.190949 -21.508539 32.593755 4.675615 1.343389 -17.741485 -14.194074 6.081793 -2.992947 -0.058704 -0.993570 0.000000 0.000000 0.000000 -11.449711 -0.671193 4.535495 5.522776 0.871385 -4.858852 8.992852 2.823380 -2.797138 1.655765 -2.074936 0.339232 0.000000 0.000000 0.000000 8.784531 2.551843 -2.850111 22.764276 0.372810 -2.935637 -2.884553 1.975730 -4.453452 0.000000 0.000000 0.000000 9.722033 2.989477 -3.199854 2.027311 -18.425422 -10.854327 -4.216008 -1.010788 -3.298996 1.015967 -23.898506 -39.960807 13.911751 -25.010131 2.429936 0.000000 0.000000 0.000000 9.175335 2.961103 -3.037946 2.667627 16.433572 14.440494 -0.383118 1.440075 3.134116 2.490316 19.924516 46.755336 33.758739 46.926941 -17.646250 0.000000 0.000000 0.000000 
-2.096155 33.410461 -3.121918 0.000000 0.000000 0.000000 -10.847960 -3.782156 4.395225 1.298326 9.201110 -4.557541 17.482971 1.241025 -2.665584 -12.284480 3.538991 2.631516 0.447781 0.425442 -0.209383 0.000000 0.000000 0.000000 -10.118507 -3.114956 4.592463 -4.460806 -12.736598 -21.788515 32.264806 4.702699 1.592687 -17.478818 -14.150631 6.207098 -3.222770 -0.095241 -1.079817 0.000000 0.000000 0.000000 -10.929386 -1.227510 4.272440 4.878925 0.742107 -4.849082 7.837475 2.736649 -2.821635 1.855351 -1.956499 0.615635 0.000000 0.000000 0.000000 7.812829 2.425881 -2.855230 20.585389 0.556507 -2.138830 -4.175794 2.101582 -3.892614 0.000000 0.000000 0.000000 8.759991 2.807319 -3.170491 2.877385 -17.108557 -8.218659 -5.124008 -1.280657 -3.477008 0.679040 -17.207499 -43.133488 17.318056 -22.965408 2.997847 0.000000 0.000000 0.000000 8.102136 2.823025 -3.017384 3.041733 15.060048 12.341517 -1.242404 1.730948 3.797811 1.676096 15.815793 49.928294 35.157637 45.125636 -18.705701 0.000000 0.000000 0.000000 
-2.064743 33.391304 -3.049377 0.000000 0.000000 0.000000 -10.694885 -3.856046 4.180382 1.261781 9.231825 -4.745183 17.219233 1.534105 -2.460836 -12.598234 3.557473 3.208883 0.690727 0.452716 -0.335634 0.000000 0.000000 0.000000 -9.889741 -3.649520 4.479343 -4.432188 -12.351850 -21.854578 31.777633 4.540096 1.849055 -17.407203 -14.333514 5.762521 -2.978757 -0.091843 -1.022775 0.000000 0.000000 0.000000 -10.526730 -2.011514 4.047537 4.234583 0.630484 -4.739110 6.844469 2.615492 -2.763039 2.136545 -1.770837 0.931657 0.000000 0.000000 0.000000 6.956271 2.289800 -2.752003 18.401640 0.655081 -1.870526 -4.974497 2.109535 -3.484712 0.000000 0.000000 0.000000 7.896093 2.617648 -3.066271 3.409886 -15.737077 -6.673610 -6.028839 -1.601676 -3.264928 -0.932449 -10.205608 -46.262633 20.586680 -19.971337 2.903222 0.000000 0.000000 0.000000 7.238443 2.666409 -2.913580 3.294405 14.028196 11.065743 -1.887539 2.140110 4.034618 0.139563 11.174744 53.006742 36.676757 42.733246 -19.166882 0.000000 0.000000 0.000000 
